[img]http://img853.imageshack.us/img853/9657/0vzcl.jpg[/img]

[b][code]

Format : AVI
Format/Info : Audio Video Interleave
File size : 1.91 GiB
Duration : 2h 11mn
Overall bit rate : 2 071 Kbps
Writing library : VirtualDub build 32842/release

Video
ID : 0
Format : MPEG-4 Visual
Format profile : Advanced Simple@L5
Format settings, BVOP : 2
Format settings, QPel : No
Format settings, GMC : No warppoints
Format settings, Matrix : Default (H.263)
Muxing mode : Packed bitstream
Codec ID : XVID
Codec ID/Hint : XviD
Duration : 2h 11mn
Bit rate : 1 611 Kbps
Width : 720 pixels
Height : 304 pixels
Display aspect ratio : 2.35:1
Frame rate : 29.970 fps
Color space : YUV
Chroma subsampling : 4:2:0
Bit depth : 8 bits
Scan type : Progressive
Compression mode : Lossy
Bits/(Pixel*Frame) : 0.246
Stream size : 1.48 GiB (78%)
Writing library : XviD 64

Audio
ID : 1
Format : AC-3
Format/Info : Audio Coding 3
Mode extension : CM (complete main)
Format settings, Endianness : Big
Codec ID : 2000
Duration : 2h 11mn
Bit rate mode : Constant
Bit rate : 448 Kbps
Channel(s) : 2 channels
Channel positions : Front: L R
Sampling rate : 48.0 KHz
Bit depth : 16 bits
Compression mode : Lossy
Stream size : 423 MiB (22%)
Alignment : Aligned on interleaves
Interleave, duration : 33 ms (1.00 video frame)
Interleave, preload duration : 512 ms







 
http://www.imdb.com/title/tt0401729/






Ratings: 7.0/10 from 29,917 users Metascore: 51/100 
Reviews: 381 user | 317 critic | 42 from Metacritic.com

Transplanted to Mars, a Civil War vet discovers a lush planet inhabited by 12-foot tall barbarians. Finding himself a prisoner of these creatures, he escapes, only to encounter a princess who is in desperate need of a savior.

Director:
Andrew Stanton
Writers:
Andrew Stanton (screenplay), Mark Andrews (screenplay), and 2 more credits ┬╗
Stars:
Taylor Kitsch, Lynn Collins and Willem Dafoe 




[/code][/b]


[img]http://img85.imageshack.us/img85/3742/vlcsnap2012041007h57m58.png[/img]
[img]http://img138.imageshack.us/img138/1984/vlcsnap2012041007h58m52.png[/img]
[img]http://img826.imageshack.us/img826/2651/vlcsnap2012041008h28m14.png[/img]



